<svg width="18" height="19" viewBox="0 0 18 19" fill="none" xmlns="http://www.w3.org/2000/svg">
<path d="M5.12853 18.044C6.46353 18.044 7.71953 17.524 8.66353 16.58L15.7975 9.44701C16.7334 8.50812 17.2588 7.23647 17.2587 5.9108C17.2585 4.58514 16.7327 3.31363 15.7965 2.37501C15.3331 1.90955 14.7819 1.54059 14.175 1.28947C13.5681 1.03835 12.9174 0.910057 12.2605 0.912009C10.9255 0.912009 9.67053 1.43201 8.72653 2.37601L1.59253 9.50901C0.656871 10.4479 0.131413 11.7193 0.131226 13.0448C0.131038 14.3703 0.656137 15.6419 1.59153 16.581C2.05516 17.0465 2.60647 17.4155 3.21357 17.6666C3.82068 17.9177 4.47154 18.046 5.12853 18.044ZM10.1395 3.79001C10.4173 3.51078 10.7477 3.28941 11.1116 3.1387C11.4755 2.98799 11.8657 2.91094 12.2595 2.91201C13.0615 2.91201 13.8155 3.22401 14.3815 3.79001C14.9434 4.35302 15.259 5.11589 15.2592 5.9113C15.2594 6.70672 14.9441 7.46973 14.3825 8.03301L11.4895 10.925L7.24753 6.68101L10.1395 3.79001Z" fill="#058789"/>
</svg>
