<svg width="25" height="24" viewBox="0 0 25 24" fill="none" xmlns="http://www.w3.org/2000/svg">
<path d="M12.665 11.641L12.442 11.861L12.218 11.641C11.8018 11.23 11.2404 10.9996 10.6555 10.9996C10.0706 10.9996 9.50922 11.23 9.09299 11.641C8.88641 11.8397 8.72207 12.0781 8.60981 12.3418C8.49756 12.6056 8.4397 12.8893 8.4397 13.176C8.4397 13.4626 8.49756 13.7463 8.60981 14.0101C8.72207 14.2738 8.88641 14.5122 9.09299 14.711L12.442 18L15.791 14.711C15.9976 14.5122 16.1619 14.2738 16.2742 14.0101C16.3864 13.7463 16.4443 13.4626 16.4443 13.176C16.4443 12.8893 16.3864 12.6056 16.2742 12.3418C16.1619 12.0781 15.9976 11.8397 15.791 11.641C15.3746 11.23 14.8131 10.9995 14.228 10.9995C13.6429 10.9995 13.0814 11.23 12.665 11.641Z" fill="black" fill-opacity="0.85"/>
<path d="M22.149 11.293L13.149 2.29296C13.0563 2.20001 12.9461 2.12627 12.8247 2.07596C12.7034 2.02565 12.5734 1.99976 12.442 1.99976C12.3107 1.99976 12.1807 2.02565 12.0594 2.07596C11.938 2.12627 11.8278 2.20001 11.735 2.29296L2.73505 11.293C2.59524 11.4328 2.50003 11.611 2.46146 11.8049C2.4229 11.9989 2.4427 12.1999 2.51837 12.3826C2.59404 12.5653 2.72218 12.7215 2.88659 12.8314C3.051 12.9412 3.2443 12.9999 3.44205 13H4.44205V20C4.44205 21.103 5.33905 22 6.44205 22H18.442C19.545 22 20.442 21.103 20.442 20V13H21.442C21.6398 12.9999 21.8331 12.9412 21.9975 12.8314C22.1619 12.7215 22.2901 12.5653 22.3657 12.3826C22.4414 12.1999 22.4612 11.9989 22.4226 11.8049C22.3841 11.611 22.2889 11.4328 22.149 11.293ZM18.443 20H6.44205V10.415L12.442 4.41496L18.442 10.415V15L18.443 20Z" fill="black" fill-opacity="0.85"/>
</svg>
