<svg width="21" height="16" viewBox="0 0 21 16" fill="none" xmlns="http://www.w3.org/2000/svg">
<path d="M13.1836 0.25293C12.985 0.608617 12.808 0.975949 12.6536 1.35293C11.1363 1.11298 9.5908 1.11298 8.07356 1.35293C7.91915 0.975949 7.74217 0.608617 7.54356 0.25293C6.11435 0.497131 4.72497 0.934467 3.41356 1.55293C1.06851 4.93722 0.00500178 9.04588 0.413565 13.1429C1.9418 14.2918 3.65702 15.168 5.48356 15.7329C5.89948 15.1835 6.27067 14.6017 6.59356 13.9929C5.99764 13.7732 5.42486 13.4952 4.88356 13.1629C5.03203 13.0641 5.17246 12.9538 5.30356 12.8329C6.88202 13.5932 8.61153 13.9881 10.3636 13.9881C12.1156 13.9881 13.8451 13.5932 15.4236 12.8329C15.5636 12.9529 15.7036 13.0629 15.8436 13.1629C15.2993 13.4926 14.7271 13.7737 14.1336 14.0029C14.4431 14.6255 14.8043 15.2209 15.2136 15.7829C17.0378 15.22 18.7501 14.3435 20.2736 13.1929C20.6919 9.09513 19.6276 4.98311 17.2736 1.60293C15.9769 0.971667 14.6012 0.5176 13.1836 0.25293ZM7.04356 10.8029C6.54315 10.767 6.07611 10.5386 5.74049 10.1657C5.40486 9.79279 5.22676 9.30435 5.24356 8.80293C5.22422 8.30085 5.40145 7.81101 5.73758 7.43754C6.0737 7.06407 6.54222 6.8364 7.04356 6.80293C7.5449 6.8364 8.01343 7.06407 8.34955 7.43754C8.68568 7.81101 8.8629 8.30085 8.84356 8.80293C8.8629 9.30501 8.68568 9.79485 8.34955 10.1683C8.01343 10.5418 7.5449 10.7695 7.04356 10.8029ZM13.6836 10.8029C13.1831 10.767 12.7161 10.5386 12.3805 10.1657C12.0449 9.79279 11.8668 9.30435 11.8836 8.80293C11.8642 8.30085 12.0415 7.81101 12.3776 7.43754C12.7137 7.06407 13.1822 6.8364 13.6836 6.80293C14.1858 6.8339 14.6559 7.06083 14.9925 7.43488C15.3292 7.80892 15.5055 8.30018 15.4836 8.80293C15.5055 9.30568 15.3292 9.79694 14.9925 10.171C14.6559 10.545 14.1858 10.772 13.6836 10.8029Z" fill="#D9D9D9"/>
</svg>
