<svg xmlns="http://www.w3.org/2000/svg" xmlns:xlink="http://www.w3.org/1999/xlink" width="50" zoomAndPan="magnify" viewBox="0 0 37.5 37.499999" height="50" preserveAspectRatio="xMidYMid meet" version="1.0"><defs><clipPath id="3c2178cd99"><path d="M 3.699219 7.402344 L 33.304688 7.402344 L 33.304688 29.605469 L 3.699219 29.605469 Z M 3.699219 7.402344 " clip-rule="nonzero"/></clipPath><clipPath id="7f2a5bd674"><path d="M 10 10.8125 L 26.976562 10.8125 L 26.976562 23.398438 L 10 23.398438 Z M 10 10.8125 " clip-rule="nonzero"/></clipPath></defs><g clip-path="url(#3c2178cd99)"><path fill="#ffffff" d="M 3.71875 9.386719 C 3.71875 10.03125 3.996094 10.769531 4.527344 11.53125 L 15.769531 27.964844 C 16.484375 29.027344 17.476562 29.605469 18.515625 29.605469 C 19.554688 29.605469 20.546875 29.027344 21.261719 27.964844 L 32.5 11.554688 C 33.03125 10.792969 33.285156 10.03125 33.285156 9.386719 C 33.285156 8.164062 32.292969 7.402344 30.65625 7.402344 L 6.351562 7.402344 C 4.710938 7.402344 3.71875 8.164062 3.71875 9.386719 Z M 3.71875 9.386719 " fill-opacity="1" fill-rule="nonzero"/></g><g clip-path="url(#7f2a5bd674)"><path fill="#ffffff" d="M 10.035156 11.949219 C 10.035156 12.320312 10.195312 12.742188 10.5 13.179688 L 16.933594 22.585938 C 17.34375 23.195312 17.910156 23.523438 18.503906 23.523438 C 19.101562 23.523438 19.667969 23.195312 20.078125 22.585938 L 26.511719 13.191406 C 26.816406 12.757812 26.960938 12.320312 26.960938 11.949219 C 26.960938 11.25 26.394531 10.8125 25.453125 10.8125 L 11.542969 10.8125 C 10.605469 10.8125 10.035156 11.25 10.035156 11.949219 Z M 10.035156 11.949219 " fill-opacity="1" fill-rule="nonzero"/></g></svg>