<svg xmlns="http://www.w3.org/2000/svg" xmlns:xlink="http://www.w3.org/1999/xlink" width="50" zoomAndPan="magnify" viewBox="0 0 37.5 37.499999" height="50" preserveAspectRatio="xMidYMid meet" version="1.0"><defs><clipPath id="480985847b"><path d="M 0 0 L 37.007812 0 L 37.007812 37.007812 L 0 37.007812 Z M 0 0 " clip-rule="nonzero"/></clipPath><clipPath id="5e6021a33a"><path d="M 7.402344 3.699219 L 29.605469 3.699219 L 29.605469 33.304688 L 7.402344 33.304688 Z M 7.402344 3.699219 " clip-rule="nonzero"/></clipPath><clipPath id="d9b99317d8"><path d="M 9.324219 10.023438 L 21.90625 10.023438 L 21.90625 27.046875 L 9.324219 27.046875 Z M 9.324219 10.023438 " clip-rule="nonzero"/></clipPath></defs><g clip-path="url(#480985847b)"><path fill="#ffffff" d="M 0 0 L 37.007812 0 L 37.007812 37.007812 L 0 37.007812 Z M 0 0 " fill-opacity="1" fill-rule="nonzero"/><path fill="#ffffff" d="M 0 0 L 37.007812 0 L 37.007812 37.007812 L 0 37.007812 Z M 0 0 " fill-opacity="1" fill-rule="nonzero"/></g><g clip-path="url(#5e6021a33a)"><path fill="#000000" d="M 9.386719 33.285156 C 10.03125 33.285156 10.769531 33.007812 11.53125 32.480469 L 27.964844 21.238281 C 29.027344 20.523438 29.605469 19.53125 29.605469 18.492188 C 29.605469 17.453125 29.027344 16.460938 27.964844 15.746094 L 11.554688 4.503906 C 10.792969 3.972656 10.03125 3.71875 9.386719 3.71875 C 8.164062 3.71875 7.402344 4.710938 7.402344 6.351562 L 7.402344 30.65625 C 7.402344 32.292969 8.164062 33.285156 9.386719 33.285156 Z M 9.386719 33.285156 " fill-opacity="1" fill-rule="nonzero"/></g><g clip-path="url(#d9b99317d8)"><path fill="#000000" d="M 10.449219 27.03125 C 10.816406 27.03125 11.234375 26.875 11.667969 26.566406 L 20.980469 20.109375 C 21.582031 19.695312 21.90625 19.125 21.90625 18.53125 C 21.90625 17.933594 21.582031 17.363281 20.980469 16.949219 L 11.679688 10.492188 C 11.25 10.183594 10.816406 10.039062 10.449219 10.039062 C 9.757812 10.039062 9.324219 10.609375 9.324219 11.550781 L 9.324219 25.519531 C 9.324219 26.460938 9.757812 27.03125 10.449219 27.03125 Z M 10.449219 27.03125 " fill-opacity="1" fill-rule="nonzero"/></g></svg>