<svg width="100" height="100" viewBox="0 0 100 100" fill="none" xmlns="http://www.w3.org/2000/svg">
<path d="M50 6C33.4531 6 20 19.4531 20 36C20 46.1172 23.8594 52.1328 27.5 56.3125C29.3203 58.4062 31.0781 60.0938 32.25 61.625C33.4219 63.1562 34 64.3906 34 66V86C34 89.2891 36.7109 92 40 92H42.3125C43.2031 95.4375 46.2969 98 50 98C53.7031 98 56.7969 95.4375 57.6875 92H60C63.2891 92 66 89.2891 66 86V66C66 63.7422 66.6641 62.1797 67.8125 60.5625C68.9609 58.9453 70.6875 57.3359 72.5 55.375C76.1172 51.4453 80 45.9297 80 36C80 19.4531 66.5469 6 50 6ZM50 10C64.3828 10 76 21.6172 76 36C76 44.9375 72.8828 49.0234 69.5 52.6875C67.8125 54.5234 66.0391 56.1797 64.5625 58.25C63.0859 60.3203 62 62.875 62 66V76H38V66C38 63.3047 36.8281 61.0781 35.375 59.1875C33.9219 57.2969 32.1797 55.6094 30.5 53.6875C27.1406 49.8359 24 45.1484 24 36C24 21.6172 35.6172 10 50 10ZM41.8125 35.9375C41.7266 35.9531 41.6406 35.9766 41.5625 36C40.8125 36.1328 40.2109 36.6797 40 37.4062C39.7891 38.1406 40.0078 38.9219 40.5625 39.4375L48 46.875V72H52V46.875L59.4375 39.4375C60.2344 38.6406 60.2344 37.3594 59.4375 36.5625C58.6406 35.7656 57.3594 35.7656 56.5625 36.5625L50 43.125L43.4375 36.5625C43.0234 36.1172 42.4219 35.8906 41.8125 35.9375ZM38 80H62V86C62 87.1094 61.1094 88 60 88H44.375C44.1094 87.9453 43.8281 87.9453 43.5625 88H40C38.8906 88 38 87.1094 38 86V80ZM46.5625 92H53.4375C52.75 93.1953 51.4922 94 50 94C48.5078 94 47.25 93.1953 46.5625 92Z" fill="#058789"/>
</svg>
