<svg width="19" height="19" viewBox="0 0 19 19" fill="none" xmlns="http://www.w3.org/2000/svg">
<path d="M9.66495 4.37183C8.43859 4.37183 7.26246 4.859 6.39529 5.72616C5.52813 6.59333 5.04095 7.76947 5.04095 8.99583C5.04095 10.2222 5.52813 11.3983 6.39529 12.2655C7.26246 13.1327 8.43859 13.6198 9.66495 13.6198C10.8913 13.6198 12.0674 13.1327 12.9346 12.2655C13.8018 11.3983 14.289 10.2222 14.289 8.99583C14.289 7.76947 13.8018 6.59333 12.9346 5.72616C12.0674 4.859 10.8913 4.37183 9.66495 4.37183ZM9.66495 11.9988C8.86824 11.9988 8.10417 11.6823 7.54081 11.119C6.97745 10.5556 6.66095 9.79154 6.66095 8.99483C6.66095 8.19812 6.97745 7.43404 7.54081 6.87068C8.10417 6.30732 8.86824 5.99083 9.66495 5.99083C10.4617 5.99083 11.2257 6.30732 11.7891 6.87068C12.3525 7.43404 12.669 8.19812 12.669 8.99483C12.669 9.79154 12.3525 10.5556 11.7891 11.119C11.2257 11.6823 10.4617 11.9988 9.66495 11.9988Z" fill="#D9D9D9"/>
<path d="M14.4719 5.2799C15.0673 5.2799 15.5499 4.79726 15.5499 4.2019C15.5499 3.60654 15.0673 3.1239 14.4719 3.1239C13.8766 3.1239 13.3939 3.60654 13.3939 4.2019C13.3939 4.79726 13.8766 5.2799 14.4719 5.2799Z" fill="#D9D9D9"/>
<path d="M18.199 3.10588C17.9675 2.50806 17.6137 1.96516 17.1603 1.51194C16.7069 1.05871 16.1639 0.705149 15.566 0.473878C14.8663 0.211235 14.1271 0.0692191 13.38 0.0538778C12.417 0.0118778 12.112 -0.00012207 9.66997 -0.00012207C7.22797 -0.00012207 6.91497 -0.000122171 5.95997 0.0538778C5.21336 0.0684347 4.47473 0.210479 3.77597 0.473878C3.1779 0.704879 2.63473 1.05835 2.1813 1.51161C1.72787 1.96486 1.3742 2.5079 1.14297 3.10588C0.880273 3.80549 0.738583 4.54471 0.723969 5.29188C0.680969 6.25388 0.667969 6.55888 0.667969 9.00188C0.667969 11.4439 0.667969 11.7549 0.723969 12.7119C0.738969 13.4599 0.879969 14.1979 1.14297 14.8989C1.37485 15.4966 1.72886 16.0395 2.1824 16.4927C2.63594 16.9458 3.17903 17.2995 3.77697 17.5309C4.4744 17.8041 5.21334 17.9563 5.96197 17.9809C6.92497 18.0229 7.22997 18.0359 9.67197 18.0359C12.114 18.0359 12.427 18.0359 13.382 17.9809C14.1291 17.9657 14.8682 17.824 15.568 17.5619C16.1657 17.3301 16.7086 16.9762 17.1619 16.5229C17.6153 16.0695 17.9692 15.5266 18.201 14.9289C18.464 14.2289 18.605 13.4909 18.62 12.7429C18.663 11.7809 18.676 11.4759 18.676 9.03288C18.676 6.58988 18.676 6.27988 18.62 5.32288C18.6083 4.56515 18.4659 3.81513 18.199 3.10588ZM16.981 12.6379C16.9745 13.2142 16.8693 13.7851 16.67 14.3259C16.5198 14.7147 16.2899 15.0679 15.995 15.3626C15.7002 15.6572 15.3469 15.8869 14.958 16.0369C14.4232 16.2353 13.8583 16.3405 13.288 16.3479C12.338 16.3919 12.07 16.4029 9.63397 16.4029C7.19597 16.4029 6.94697 16.4029 5.97897 16.3479C5.4089 16.3409 4.84429 16.2357 4.30997 16.0369C3.91966 15.8879 3.56497 15.6586 3.26886 15.3638C2.97275 15.0691 2.7418 14.7155 2.59097 14.3259C2.39442 13.7909 2.28928 13.2267 2.27997 12.6569C2.23697 11.7069 2.22697 11.4389 2.22697 9.00288C2.22697 6.56588 2.22697 6.31688 2.27997 5.34788C2.28643 4.7719 2.39162 4.2013 2.59097 3.66088C2.89597 2.87188 3.52097 2.25088 4.30997 1.94888C4.84456 1.75102 5.40899 1.64584 5.97897 1.63788C6.92997 1.59488 7.19697 1.58288 9.63397 1.58288C12.071 1.58288 12.321 1.58288 13.288 1.63788C13.8584 1.64474 14.4233 1.74995 14.958 1.94888C15.3469 2.09915 15.7001 2.32908 15.9949 2.62391C16.2898 2.91874 16.5197 3.27195 16.67 3.66088C16.8665 4.19583 16.9717 4.76004 16.981 5.32988C17.024 6.28088 17.035 6.54788 17.035 8.98488C17.035 11.4209 17.035 11.6829 16.992 12.6389H16.981V12.6379Z" fill="#D9D9D9"/>
</svg>
