<svg xmlns="http://www.w3.org/2000/svg" xmlns:xlink="http://www.w3.org/1999/xlink" width="244" zoomAndPan="magnify" viewBox="0 0 183 50.999998" height="68" preserveAspectRatio="xMidYMid meet" version="1.0"><defs><clipPath id="98b622d0be"><path d="M 0 0 L 182.5625 0 L 182.5625 50.25 L 0 50.25 Z M 0 0 " clip-rule="nonzero"/></clipPath><clipPath id="c9693ebadc"><path d="M 0 2.894531 L 182.5625 2.894531 L 182.5625 50.25 L 0 50.25 Z M 0 2.894531 " clip-rule="nonzero"/></clipPath><clipPath id="d3238e9d65"><path d="M 55.769531 2.894531 L 198.507812 2.894531 C 229.632812 2.894531 254.859375 28.078125 254.859375 59.144531 L 254.859375 100.96875 C 254.859375 132.035156 229.632812 157.21875 198.507812 157.21875 L 55.769531 157.21875 C 24.648438 157.21875 -0.578125 132.035156 -0.578125 100.96875 L -0.578125 59.144531 C -0.578125 28.078125 24.648438 2.894531 55.769531 2.894531 Z M 55.769531 2.894531 " clip-rule="nonzero"/></clipPath></defs><rect x="-18.3" width="219.6" fill="#ffffff" y="-5.1" height="61.199998" fill-opacity="1"/><rect x="-18.3" width="219.6" fill="#ffffff" y="-5.1" height="61.199998" fill-opacity="1"/><g clip-path="url(#98b622d0be)"><path fill="#ffffff" d="M -0.578125 0 L 182.5625 0 L 182.5625 50.625 L -0.578125 50.625 Z M -0.578125 0 " fill-opacity="1" fill-rule="nonzero"/><path fill="#058789" d="M -0.578125 0 L 182.5625 0 L 182.5625 50.625 L -0.578125 50.625 Z M -0.578125 0 " fill-opacity="1" fill-rule="nonzero"/></g><g clip-path="url(#c9693ebadc)"><g clip-path="url(#d3238e9d65)"><path fill="#ffffff" d="M -0.578125 2.894531 L 254.960938 2.894531 L 254.960938 157.21875 L -0.578125 157.21875 Z M -0.578125 2.894531 " fill-opacity="1" fill-rule="nonzero"/></g></g></svg>