<svg width="13" height="16" viewBox="0 0 13 16" fill="none" xmlns="http://www.w3.org/2000/svg">
<path d="M1.43491 13.6117C1.43491 13.9876 1.58006 14.348 1.83845 14.6138C2.09683 14.8795 2.44727 15.0289 2.81268 15.0289H9.70157C10.067 15.0289 10.4174 14.8795 10.6758 14.6138C10.9342 14.348 11.0794 13.9876 11.0794 13.6117V5.10885H12.4571V3.69171H9.70157V2.27456C9.70157 1.89872 9.55641 1.53826 9.29803 1.27249C9.03965 1.00673 8.6892 0.857422 8.3238 0.857422H4.19046C3.82505 0.857422 3.47461 1.00673 3.21623 1.27249C2.95784 1.53826 2.81268 1.89872 2.81268 2.27456V3.69171H0.0571289V5.10885H1.43491V13.6117ZM4.19046 2.27456H8.3238V3.69171H4.19046V2.27456ZM3.50157 5.10885H9.70157V13.6117H2.81268V5.10885H3.50157Z" fill="white"/>
<path d="M4.48572 7.05762H5.66667V12.3719H4.48572V7.05762ZM6.84762 7.05762H8.02857V12.3719H6.84762V7.05762Z" fill="white"/>
</svg>
