<svg width="21" height="16" viewBox="0 0 21 16" fill="none" xmlns="http://www.w3.org/2000/svg">
<path d="M18.309 4.01487C18.322 4.18987 18.322 4.36387 18.322 4.53787C18.322 9.86287 14.269 15.9989 6.86203 15.9989C4.58003 15.9989 2.46003 15.3379 0.676025 14.1899C1.00003 14.2269 1.31203 14.2399 1.64903 14.2399C3.46202 14.2442 5.22367 13.638 6.65003 12.5189C5.80945 12.5037 4.9946 12.2263 4.31926 11.7256C3.64393 11.2249 3.14181 10.5258 2.88303 9.72587C3.13203 9.76287 3.38203 9.78787 3.64403 9.78787C4.00503 9.78787 4.36803 9.73787 4.70503 9.65087C3.79279 9.46668 2.9725 8.97221 2.38364 8.25155C1.79479 7.53089 1.47372 6.62851 1.47503 5.69787V5.64787C2.01203 5.94687 2.63503 6.13387 3.29503 6.15887C2.74211 5.79145 2.28875 5.29289 1.97537 4.70766C1.66198 4.12242 1.49834 3.46872 1.49903 2.80487C1.49903 2.05687 1.69803 1.37087 2.04703 0.772866C3.05916 2.01789 4.32153 3.03643 5.75236 3.76252C7.18319 4.48862 8.75059 4.90608 10.353 4.98787C10.291 4.68787 10.253 4.37687 10.253 4.06487C10.2528 3.53583 10.3568 3.01192 10.5591 2.52311C10.7614 2.03429 11.0581 1.59014 11.4322 1.21605C11.8063 0.841967 12.2504 0.545277 12.7393 0.342944C13.2281 0.140611 13.752 0.0366029 14.281 0.0368657C15.441 0.0368657 16.488 0.522866 17.224 1.30887C18.1258 1.13448 18.9906 0.805288 19.78 0.335866C19.4794 1.26668 18.8498 2.05597 18.009 2.55587C18.8088 2.46464 19.5905 2.25432 20.328 1.93187C19.7772 2.73496 19.0945 3.43921 18.309 4.01487Z" fill="#D9D9D9"/>
</svg>
